<?xml version="1.0" standalone="no"?>
<!DOCTYPE svg PUBLIC "-//W3C//DTD SVG 20010904//EN"
 "http://www.w3.org/TR/2001/REC-SVG-20010904/DTD/svg10.dtd">
<svg version="1.0" xmlns="http://www.w3.org/2000/svg"
 width="856.000000pt" height="856.000000pt" viewBox="0 0 856.000000 856.000000"
 preserveAspectRatio="xMidYMid meet">
<metadata>
Created by potrace 1.14, written by Peter Selinger 2001-2017
</metadata>
<g transform="translate(0.000000,856.000000) scale(0.100000,-0.100000)"
fill="#000000" stroke="none">
<path d="M1569 8556 c-2 -2 -24 -6 -49 -9 -25 -4 -54 -8 -65 -11 -89 -20 -119
-28 -180 -49 -184 -64 -347 -164 -496 -304 -103 -97 -217 -242 -265 -336 -9
-18 -20 -34 -23 -37 -19 -14 -136 -309 -126 -318 2 -3 1 -10 -4 -16 -5 -6 -14
-36 -20 -66 -6 -30 -14 -66 -17 -80 -3 -14 -8 -50 -12 -80 -9 -70 -9 -5888 0
-5955 4 -27 12 -75 18 -105 6 -30 13 -66 16 -80 10 -50 67 -207 104 -288 42
-89 109 -205 122 -210 4 -2 8 -10 8 -18 0 -8 5 -14 10 -14 6 0 10 -6 10 -14 0
-8 3 -16 8 -18 4 -1 32 -32 62 -68 104 -122 198 -204 330 -287 112 -69 262
-137 345 -155 53 -11 58 -13 70 -19 6 -3 26 -7 45 -10 59 -7 5643 -4 5670 3
14 4 57 16 95 26 139 38 281 106 415 201 84 59 109 81 198 171 65 65 197 233
197 249 0 3 9 20 20 36 34 50 130 259 139 301 12 63 20 84 28 84 5 0 6 5 3 10
-4 6 -1 26 5 45 6 19 15 52 18 72 4 21 7 1109 7 2417 0 1895 -3 2380 -12 2383
-7 3 -13 10 -13 17 0 6 -8 19 -17 27 -10 8 -58 60 -108 114 -49 53 -108 117
-130 140 -22 23 -67 71 -99 106 -33 35 -108 116 -167 179 -59 63 -121 131
-139 150 -72 78 -238 257 -290 311 -30 32 -84 90 -120 129 -36 40 -87 95 -115
124 -27 30 -95 102 -150 161 -55 60 -113 122 -130 140 -16 17 -75 80 -130 140
-55 59 -116 125 -135 145 -19 21 -78 84 -130 140 -52 57 -112 121 -133 144
-22 23 -85 90 -140 151 -170 183 -199 210 -243 223 -33 9 -511 12 -2161 12
-1166 0 -2122 -2 -2124 -4z m3975 -447 c3 -3 6 -523 6 -1156 0 -1121 1 -1151
20 -1189 29 -58 50 -81 100 -107 l46 -24 1071 1 1071 1 -2 -2145 c-2 -1180 -6
-2158 -9 -2175 -27 -120 -56 -212 -88 -280 -26 -57 -89 -168 -99 -175 -4 -3
-11 -12 -16 -22 -23 -42 -135 -155 -207 -209 -79 -59 -245 -147 -289 -153 -13
-2 -30 -6 -38 -10 -77 -33 -131 -33 -2848 -31 -1472 1 -2693 5 -2712 9 -136
28 -264 81 -372 153 -66 44 -238 205 -238 222 0 4 -11 21 -25 37 -13 15 -30
41 -36 56 -6 15 -15 28 -20 28 -5 0 -9 4 -9 9 0 5 -16 43 -36 85 -19 42 -37
84 -40 94 -2 9 -13 51 -24 92 -11 41 -23 99 -27 130 -8 76 -9 5749 0 5835 20
197 125 441 252 584 87 99 222 211 253 211 6 0 12 3 14 8 6 13 206 100 236
102 4 0 23 3 42 7 19 3 60 9 90 12 71 8 3926 8 3934 0z m479 -337 c23 -25 58
-62 77 -82 49 -51 264 -283 325 -349 28 -30 64 -68 80 -86 39 -40 210 -225
406 -436 54 -57 112 -120 130 -140 19 -19 75 -79 124 -133 50 -54 110 -119
135 -145 25 -26 86 -92 135 -146 50 -54 107 -115 128 -137 21 -21 33 -38 25
-39 -7 0 -375 -1 -818 -2 l-805 0 0 876 c-1 499 3 873 8 870 5 -3 27 -26 50
-51z"/>
<path d="M996 4362 c-2 -4 -4 -496 -4 -1094 l1 -1087 229 -3 c126 -2 231 -2
232 -1 1 1 114 5 251 8 138 3 266 7 285 9 19 3 55 7 80 10 42 4 128 18 195 31
98 19 249 83 352 152 112 73 259 236 313 348 8 17 17 32 20 35 13 13 48 123
76 235 30 125 25 450 -8 570 -13 47 -12 40 -22 85 -5 19 -12 41 -17 50 -4 8
-20 42 -35 75 -85 183 -269 363 -461 452 -42 19 -81 36 -87 37 -6 1 -15 4 -21
8 -12 7 -127 35 -175 43 -19 3 -46 7 -60 10 -31 6 -121 15 -197 21 -96 8 -943
13 -947 6z m809 -426 c72 -3 140 -7 153 -10 12 -4 30 -8 40 -10 60 -14 84 -22
147 -51 73 -34 179 -119 210 -170 50 -80 78 -147 91 -209 2 -11 7 -32 10 -46
11 -44 13 -253 4 -310 -51 -305 -246 -481 -572 -516 -74 -8 -328 -11 -329 -4
-5 30 -3 1309 2 1320 6 12 21 15 61 13 29 -1 112 -4 183 -7z"/>
<path d="M3968 4196 c-34 -94 -63 -173 -64 -176 0 -3 -4 -12 -7 -20 -4 -8 -20
-51 -36 -95 -45 -125 -143 -387 -154 -415 -5 -14 -11 -29 -13 -35 -1 -5 -14
-41 -29 -80 -14 -38 -44 -119 -66 -180 -22 -60 -43 -119 -49 -130 -5 -11 -19
-49 -31 -85 -12 -36 -27 -71 -32 -77 -5 -7 -7 -13 -4 -13 3 0 -11 -39 -30 -87
-19 -49 -36 -92 -37 -98 -2 -5 -6 -17 -9 -25 -3 -8 -24 -67 -48 -130 -23 -63
-46 -126 -51 -140 -5 -14 -9 -26 -10 -27 0 -1 -17 -47 -38 -102 l-38 -100 75
-3 c41 -2 76 -1 78 2 2 3 56 3 120 0 64 -3 118 -3 121 -1 2 2 41 3 88 2 l84
-2 12 33 c7 18 14 35 14 38 1 3 15 43 31 90 16 47 30 87 30 90 1 3 5 12 8 20
4 8 15 40 25 70 l19 55 435 2 c239 0 439 -2 444 -5 5 -4 23 -45 39 -92 16 -47
45 -132 65 -190 l37 -105 281 -3 c155 -1 282 1 282 5 0 5 -9 33 -21 63 -11 30
-35 96 -53 145 -18 50 -38 101 -43 115 -6 14 -23 59 -38 100 -15 41 -30 84
-35 95 -5 11 -27 72 -50 135 -23 63 -45 124 -50 135 -4 11 -49 133 -100 270
-91 247 -125 341 -140 380 -5 11 -18 47 -30 80 -12 33 -26 69 -30 80 -5 11
-20 52 -34 90 -14 39 -48 132 -76 207 -29 76 -53 144 -54 152 -1 8 -8 21 -15
30 -7 9 -11 16 -8 16 4 0 -2 19 -12 43 l-18 42 -336 1 -335 1 -64 -171z m437
-446 c15 -47 32 -91 38 -97 5 -7 7 -13 4 -13 -3 0 7 -36 23 -79 15 -44 26 -82
22 -85 -3 -3 -1 -6 5 -6 5 0 10 -6 10 -12 1 -11 51 -157 147 -430 8 -21 11
-39 7 -39 -9 -2 -591 -5 -591 -3 0 1 7 18 15 38 8 20 13 36 10 36 -3 0 1 13
10 29 8 17 17 38 18 48 2 10 7 25 10 33 4 8 43 120 86 248 44 129 82 236 85
240 3 3 6 11 6 18 0 7 5 25 12 41 6 15 12 34 14 41 1 8 6 21 10 30 10 22 11
29 13 49 2 29 16 2 46 -87z"/>
<path d="M5620 4363 c0 -5 33 -56 40 -63 6 -6 180 -262 195 -287 6 -9 17 -25
26 -35 9 -11 25 -34 35 -53 10 -19 22 -35 26 -35 5 0 8 -6 8 -14 0 -8 4 -16 8
-18 4 -1 17 -17 27 -35 11 -17 81 -119 155 -227 74 -108 140 -204 145 -214 6
-10 20 -32 33 -49 12 -17 22 -34 22 -37 0 -4 -27 -46 -60 -94 -33 -48 -64 -94
-70 -102 -5 -8 -32 -48 -60 -88 -27 -41 -50 -77 -50 -82 0 -5 -3 -10 -7 -12
-9 -3 -18 -16 -124 -173 -41 -60 -77 -111 -81 -113 -5 -2 -8 -10 -8 -18 0 -8
-4 -14 -10 -14 -5 0 -10 -5 -10 -10 0 -11 -33 -60 -62 -94 -10 -11 -18 -26
-18 -33 0 -7 -4 -13 -8 -13 -4 0 -16 -15 -27 -32 -10 -18 -50 -77 -88 -131
-38 -54 -66 -101 -63 -105 3 -3 6 -2 6 2 0 4 9 2 20 -4 14 -8 20 -8 20 0 0 7
6 8 14 3 8 -4 129 -7 269 -5 l254 3 129 190 c71 104 134 197 139 207 24 42 99
147 107 150 4 2 8 8 8 13 0 9 56 93 83 123 9 11 17 25 17 32 0 6 7 14 15 17
10 4 35 -25 82 -96 37 -56 75 -110 84 -120 9 -10 25 -33 35 -52 10 -19 22 -35
26 -35 5 0 8 -6 8 -13 0 -8 9 -22 20 -32 11 -10 20 -23 20 -28 0 -6 8 -20 19
-31 10 -12 64 -89 120 -173 l102 -151 51 -4 c27 -1 51 -1 53 2 2 3 56 3 120 0
64 -3 118 -3 120 0 2 3 51 3 110 0 114 -5 137 -1 120 24 -5 9 -48 71 -94 138
-46 68 -125 184 -175 258 -50 74 -93 137 -96 140 -10 10 -70 101 -70 106 0 3
-6 11 -12 19 -11 11 -155 219 -183 264 -6 9 -24 36 -40 60 -17 24 -35 53 -41
63 -7 11 -16 24 -22 30 -8 8 -3 23 17 52 16 23 29 45 29 50 0 5 4 12 10 15 5
3 62 85 127 181 65 96 122 177 127 178 4 2 8 7 8 12 0 11 112 174 122 178 4 2
8 8 8 14 0 8 55 93 70 108 3 3 46 66 95 140 49 74 93 137 97 138 33 15 -31 19
-288 19 l-297 0 -16 -29 c-9 -15 -19 -28 -23 -28 -5 0 -8 -7 -8 -15 0 -8 -4
-15 -10 -15 -5 0 -10 -5 -10 -11 0 -6 -13 -28 -30 -49 -16 -21 -30 -42 -30
-48 0 -6 -3 -12 -8 -14 -6 -3 -173 -244 -197 -286 -5 -9 -12 -19 -15 -22 -15
-15 -50 -71 -50 -79 0 -6 -8 -15 -17 -20 -10 -6 -13 -11 -8 -11 6 0 6 -3 0 -8
-6 -4 -18 -19 -28 -34 -19 -30 -37 -37 -37 -14 0 8 -4 16 -8 18 -5 2 -33 39
-62 83 -29 44 -56 82 -60 85 -3 3 -17 23 -30 45 -13 22 -27 42 -30 45 -3 3
-48 68 -100 145 -52 77 -112 167 -135 200 l-41 60 -292 1 c-160 0 -292 -1
-292 -3z"/>
</g>
</svg>
